<?xml version="1.0" encoding="UTF-8" standalone="no"?>
<!-- Created with Inkscape (http://www.inkscape.org/) -->

<svg
   version="1.1"
   id="svg1"
   width="410.36984"
   height="412.74713"
   viewBox="0 0 410.36984 412.74713"
   xmlns:xlink="http://www.w3.org/1999/xlink"
   xmlns="http://www.w3.org/2000/svg"
   xmlns:svg="http://www.w3.org/2000/svg">
  <defs
     id="defs1">
    <linearGradient
       id="linearGradient1">
      <stop
         style="stop-color:#b862ca;stop-opacity:1;"
         offset="0.50926399"
         id="stop2" />
      <stop
         style="stop-color:#38064c;stop-opacity:1;"
         offset="1"
         id="stop1" />
    </linearGradient>
    <filter
       style="color-interpolation-filters:sRGB"
       id="filter14"
       x="-0.3176062"
       y="-0.3214464"
       width="1.63969"
       height="1.647466">
      <feOffset
         dy="3"
         dx="3"
         id="feOffset14" />
      <feGaussianBlur
         stdDeviation="3"
         result="blur"
         id="feGaussianBlur14" />
      <feFlood
         flood-color="rgb(0,0,0)"
         flood-opacity="1"
         result="flood"
         id="feFlood14" />
      <feComposite
         in="flood"
         in2="SourceGraphic"
         operator="in"
         result="composite"
         id="feComposite14" />
      <feBlend
         in="blur"
         in2="composite"
         mode="normal"
         id="feBlend14"
         result="fbSourceGraphic" />
      <feColorMatrix
         result="fbSourceGraphicAlpha"
         in="fbSourceGraphic"
         values="0 0 0 -1 0 0 0 0 -1 0 0 0 0 -1 0 0 0 0 1 0"
         id="feColorMatrix91" />
      <feFlood
         id="feFlood91"
         result="flood"
         in="fbSourceGraphic"
         flood-opacity="0.925490"
         flood-color="rgb(136,0,137)" />
      <feGaussianBlur
         id="feGaussianBlur91"
         result="blur"
         in="fbSourceGraphic"
         stdDeviation="33.239517" />
      <feOffset
         id="feOffset91"
         result="offset"
         in="blur"
         dx="0.984950"
         dy="1.007717" />
      <feComposite
         id="feComposite91"
         result="comp1"
         operator="in"
         in="flood"
         in2="offset" />
      <feComposite
         id="feComposite92"
         result="fbSourceGraphic"
         operator="over"
         in="fbSourceGraphic"
         in2="comp1" />
      <feColorMatrix
         result="fbSourceGraphicAlpha"
         in="fbSourceGraphic"
         values="0 0 0 -1 0 0 0 0 -1 0 0 0 0 -1 0 0 0 0 1 0"
         id="feColorMatrix103" />
      <feFlood
         id="feFlood103"
         result="flood"
         in="fbSourceGraphic"
         flood-opacity="0.925490"
         flood-color="rgb(16,0,17)" />
      <feGaussianBlur
         id="feGaussianBlur103"
         result="blur"
         in="fbSourceGraphic"
         stdDeviation="110.190216" />
      <feOffset
         id="feOffset103"
         result="offset"
         in="blur"
         dx="0.984950"
         dy="1.007717" />
      <feComposite
         id="feComposite103"
         result="comp1"
         operator="in"
         in="flood"
         in2="offset" />
      <feComposite
         id="feComposite104"
         result="comp2"
         operator="over"
         in="fbSourceGraphic"
         in2="comp1" />
    </filter>
    <radialGradient
       xlink:href="#linearGradient1"
       id="radialGradient2"
       cx="2473.9132"
       cy="2207.9747"
       fx="2473.9132"
       fy="2207.9747"
       r="1602.4972"
       gradientTransform="matrix(1,0,0,0.99998713,0,0.02842471)"
       gradientUnits="userSpaceOnUse" />
  </defs>
  <g
     id="g1"
     transform="matrix(0.12484171,0,0,0.12484171,-103.66263,-69.273771)">
    <g
       id="group-R5">
      <path
         id="path3"
         d="m 2473.9139,618.71473 c 877.8666,0 1589.2799,711.64007 1589.2799,1589.26667 0,877.8533 -711.4133,1589.2533 -1589.2799,1589.2533 -877.6267,0 -1589.28133,-711.4 -1589.28133,-1589.2533 0,-877.6266 711.65463,-1589.26667 1589.28133,-1589.26667 v 0"
         style="fill:url(#radialGradient2);fill-opacity:1;fill-rule:evenodd;stroke:#2d2d2d;stroke-width:26.4331;stroke-dasharray:none;stroke-opacity:1" />
      <path
         id="path4"
         d="m 2183.4259,3376.6793 -1064.4576,-1639.1209 -0.2263,-0.493 v 0 l -0.2217,-0.515 v 0 l -0.9481,-1.9816 0.066,-0.043 c -3.8515,-9.5826 -0.5572,-21.0012 8.4717,-26.8646 L 2238.1151,985.51664 2220.9275,959.54274 1034.3111,1729.9145 2127.3722,3413.081 Z m 143.3899,-2.6601 -1058.6286,-1630.1451 -0.2348,-0.5062 v 0 l -0.2263,-0.4929 v 0 l -1.0426,-2.1275 0.08,-0.052 c -3.8513,-9.5825 -0.4625,-20.8555 8.5664,-26.7189 l 1069.3386,-694.2296 -23.2853,-35.18946 -36.8303,23.91776 -1115.5003,724.4144 c 364.3561,561.0601 728.7041,1122.1067 1093.052,1683.1533 z m 729.4818,-2198.8226 -378.497,245.7988 c -10.3263,6.706 -24.1048,3.7772 -30.8108,-6.5491 l -245.7988,-378.4969 -9.7173,6.3105 -1073.3057,696.787 c 371.7503,572.4453 743.5006,1144.8905 1115.2509,1717.3358 l 828.351,-537.9375 -6.8951,-6.9659 -15.1616,-16.0719 -192.995,83.8864 c -10.5604,4.6935 -22.8687,0.377 -28.3166,-9.6933 l -61.0584,-97.6736 c -5.8725,-9.3617 -3.8174,-21.5002 4.4206,-28.5815 l 159.7298,-136.7623 c -6.0374,-15.2965 -11.4555,-30.7695 -16.221,-46.252 -4.8752,-15.8253 -9.1264,-31.849 -12.5508,-47.7882 L 2883.659,2588.737 c -11.0581,-1.2322 -19.2734,-10.5784 -19.7487,-21.2806 l -3.9903,-116.1942 c -0.4262,-11.1482 7.5104,-20.8383 18.3211,-22.6829 l 206.6613,-38.554 c 2.4968,-16.0957 5.569,-32.32 9.2716,-48.5588 3.735,-16.015 8.0714,-31.7995 12.9207,-47.2582 l -169.2188,-125.251 c -8.9165,-6.7451 -11.4917,-18.681 -6.4424,-28.2088 l 54.4262,-102.7277 c 5.3406,-9.717 16.7378,-14.1071 27.0221,-10.4148 l 198.4579,69.993 c 10.2123,-12.8808 20.9997,-25.514 32.2837,-37.5851 10.9664,-11.8647 22.5446,-23.2799 34.7417,-34.438 l -83.7833,-192.8362 c -4.6141,-10.6119 -0.2889,-22.9069 9.6933,-28.3167 l 97.5127,-61.1609 c 9.4412,-5.9242 21.5665,-3.8603 28.6995,4.4569 l 136.6828,159.7815 c 10.9321,-4.295 21.9587,-8.4441 33.1227,-12.0052 6.5121,-2.2902 13.2087,-4.2675 19.7728,-6.1586 z m -384.0788,196.3081 333.3924,-216.5075 -549.8999,-116.8849 z m 1053.7967,834.9671 c -28.9347,-3.4571 -58.447,-2.2101 -87.6048,3.7568 -31.3052,6.5145 -61.9841,18.4572 -90.4704,36.2975 -64.3796,40.303 -106.4632,103.0553 -122.294,171.6276 -15.8175,68.5637 -5.5001,143.2874 34.863,207.7598 13.975,22.2442 30.837,42.1808 49.8622,59.188 l 0.7151,0.6084 c 16.2442,14.5219 33.8135,26.6209 52.4748,36.7495 l 349.9542,-227.2628 z m -204.0768,543.0178 c -14.0467,-9.0223 -27.4855,-19.0793 -40.2521,-30.42 l -0.8846,-0.7244 c -21.7836,-19.5447 -41.4315,-42.6411 -57.8362,-68.9166 -46.7936,-74.7514 -58.8948,-161.6992 -40.5083,-241.4364 18.3487,-79.5053 67.1903,-152.2556 141.9246,-199.0757 33.3024,-20.7423 68.8091,-34.7284 104.9602,-42.2442 22.0439,-4.6032 44.4109,-6.5931 66.6857,-6.3774 l -150.7119,-232.0758 c -10.4643,2.8994 -20.7771,5.9451 -31.0816,9.3807 -14.836,4.8915 -29.8478,10.5559 -44.693,16.9403 -8.7098,3.7174 -19.2215,1.4716 -25.6024,-6.0354 l -134.8315,-157.5392 -66.2199,41.4979 82.5721,190.1594 c 3.8485,8.7375 1.6821,19.1977 -5.9089,25.6521 -15.2712,13.3803 -29.8403,27.3777 -43.578,42.134 -13.9051,14.846 -27.045,30.4938 -39.146,46.7846 -5.7638,7.4133 -15.9008,10.7589 -25.1568,7.4906 l -195.575,-69.0606 -36.5334,69.0671 165.2289,122.4403 c 8.7583,5.3421 12.819,16.0874 9.3796,26.0945 -6.772,19.5118 -12.288,39.0737 -16.8073,58.4026 -4.4738,19.5439 -8.0867,39.6017 -10.4947,59.9498 -1.1507,9.3866 -8.264,17.2434 -17.8935,19.1677 l -204.1238,37.998 2.7767,78.0962 204.3413,23.2016 c 10.0659,0.3708 19.0495,7.7123 21.0219,18.0822 3.7809,19.7921 8.7253,39.6947 14.7352,59.0933 5.9373,19.2578 12.8798,38.2955 20.9514,57.0141 3.6527,8.6388 1.4154,19.164 -6.1709,25.5964 l -157.4169,134.8462 41.3906,66.4023 190.28,-82.7632 c 8.7096,-3.7174 19.2063,-1.6689 25.6904,5.997 7.8764,9.1144 15.9448,17.9158 24.1467,26.1979 4.3174,4.3298 8.6263,8.6462 13.3667,13.1342 l 221.9747,-144.1521"
         style="fill:#b476eb;fill-opacity:1;fill-rule:evenodd;stroke:#000000;stroke-width:10;stroke-dasharray:none;stroke-opacity:1" />
    </g>
    <path
       style="font-size:192px;font-family:Chandas;-inkscape-font-specification:'Chandas, Normal';text-align:center;text-anchor:middle;fill:#fffffc;fill-opacity:1;stroke:#000000;stroke-width:2.18954;stroke-linecap:round;stroke-linejoin:round;stroke-dasharray:none;filter:url(#filter14)"
       d="m 1887.0759,2178.3724 63.3096,280.1926 167.5178,-108.7873 z m -74.2809,-38.3671 70.0528,-45.4929 468.5063,342.6918 -63.9614,41.537 -117.376,-90.0577 -205.2854,133.3139 34.5307,143.8581 -64.5705,41.9326 z m 427.9626,-205.1734 110.7651,170.5637 76.7536,-49.8443 q 43.2502,-28.087 52.1567,-65.0491 9.1203,-37.9668 -17.3842,-78.7802 -26.9003,-41.4227 -64.8985,-47.9242 -37.3891,-6.8972 -80.6393,21.1898 z m -95.3636,-10.8189 138.8873,-90.1946 q 76.7537,-49.8444 138.2884,-40.4402 61.5346,9.4041 105.0496,76.4112 43.5149,67.0071 27.0776,127.0468 -16.8329,59.4305 -93.5867,109.2749 l -76.7533,49.8444 118.6771,182.7467 -62.1341,40.3502 z m 419.7082,-272.5618 62.1341,-40.3501 295.5059,455.0394 -62.1339,40.3502 z"
       id="text14"
       aria-label="API"
       transform="matrix(1.7126088,0,0,1.7301692,-1585.4039,-1532.5685)" />
  </g>
</svg>
